<svg xmlns="http://www.w3.org/2000/svg" xmlns:xlink="http://www.w3.org/1999/xlink" width="16" height="14">
  <defs>
    <path id="a" d="M0 3.3263c0-.5484.44463-.99297 1.00087-.99297h13.99826c.55276 0 1.00087.44035 1.00087.99297v.68073C16 4.55543 15.55537 5 14.99913 5H1.00087C.44811 5 0 4.55965 0 4.00703V3.3263Zm0 5.33333c0-.5484.44463-.99296 1.00087-.99296h13.99826c.55276 0 1.00087.44034 1.00087.99296v.68074c0 .5484-.44463.99296-1.00087.99296H1.00087C.44811 10.33333 0 9.893 0 9.34037v-.68074Zm0 5.33334C0 13.44457.44463 13 1.00087 13h13.99826C15.55189 13 16 13.44035 16 13.99297v.68073c0 .5484-.44463.99297-1.00087.99297H1.00087C.44811 15.66667 0 15.22632 0 14.6737v-.68073Z"/>
  </defs>
  <use xlink:href="#a" fill="#333" fill-rule="evenodd" transform="translate(0 -2)"/>
</svg>
