<svg xmlns="http://www.w3.org/2000/svg" xmlns:xlink="http://www.w3.org/1999/xlink" width="9" height="14">
  <defs>
    <path id="a" d="M7.5 11.72695c-.38627 0-.6235-.15458-.93525-.4871L1.17776 5.49371c-.32035-.34171-.32035-.89573 0-1.23744.32036-.3417.83975-.3417 1.1601 0L7.5 9.76256l5.16214-5.50628c.32035-.3417.83974-.3417 1.1601 0 .32035.34171.32035.89573 0 1.23744l-5.36782 5.72567c-.31814.33935-.56815.50756-.95442.50756Z"/>
  </defs>
  <g fill="none" fill-rule="evenodd">
    <path fill="#none" d="M-1283-608H83v829h-1366z"/>
    <g transform="matrix(-1 0 0 1 12 -1)">
      <path d="M0 0h15v16H0z"/>
      <mask id="b" fill="#fff">
        <use xlink:href="#a"/>
      </mask>
      <g fill="#333" mask="url(#b)">
        <path d="M-76.875-57h169V73h-169z"/>
      </g>
    </g>
  </g>
</svg>
